<?xml version="1.0" encoding="UTF-8" standalone="no"?>
<!-- Created with Inkscape (http://www.inkscape.org/) -->

<svg
   width="313.30646mm"
   height="146.96533mm"
   viewBox="0 0 313.30646 146.96533"
   version="1.1"
   id="svg1"
   sodipodi:docname="closure.svg"
   inkscape:version="1.4.3 (0d15f75042, 2025-12-25)"
   xmlns:inkscape="http://www.inkscape.org/namespaces/inkscape"
   xmlns:sodipodi="http://sodipodi.sourceforge.net/DTD/sodipodi-0.dtd"
   xmlns="http://www.w3.org/2000/svg"
   xmlns:svg="http://www.w3.org/2000/svg">
  <sodipodi:namedview
     id="namedview1"
     pagecolor="#ffffff"
     bordercolor="#000000"
     borderopacity="0.25"
     inkscape:showpageshadow="2"
     inkscape:pageopacity="0.0"
     inkscape:pagecheckerboard="0"
     inkscape:deskcolor="#d1d1d1"
     inkscape:document-units="mm"
     inkscape:zoom="0.36346801"
     inkscape:cx="320.52339"
     inkscape:cy="250.36591"
     inkscape:window-width="1920"
     inkscape:window-height="1025"
     inkscape:window-x="0"
     inkscape:window-y="0"
     inkscape:window-maximized="1"
     inkscape:current-layer="layer1" />
  <defs
     id="defs1">
    <rect
       x="1620.5002"
       y="27.512737"
       width="547.50348"
       height="209.0968"
       id="rect6" />
    <rect
       x="1273.8397"
       y="404.43723"
       width="385.17834"
       height="85.28949"
       id="rect5" />
    <rect
       x="143.06622"
       y="221.47754"
       width="242.11209"
       height="115.5535"
       id="rect3" />
    <rect
       x="143.06622"
       y="221.47754"
       width="429.1987"
       height="96.294586"
       id="rect7" />
  </defs>
  <g
     inkscape:label="Layer 1"
     inkscape:groupmode="layer"
     id="layer1"
     transform="translate(-5.2185004,18.807405)">
    <path
       style="fill:#8e9aeb;fill-opacity:1;stroke:#0b0b10;stroke-width:1;stroke-linecap:round;stroke-linejoin:round;stroke-dasharray:none;stroke-dashoffset:0;stroke-opacity:1"
       d="m 238.40074,51.683822 c 0.36397,-7.279412 -3.63971,-15.650733 -10.19118,-13.466909 -6.55147,2.183823 -3.27574,7.643381 -8.00735,7.279408 -5.73793,-0.441382 -12.73897,1.819855 -13.46692,-5.823529 -0.72794,-7.643381 -2.18382,-11.283087 4.73162,-15.650734 6.91544,-4.367647 14.55882,-8.735294 16.01471,-2.547794 1.45588,6.187501 3.27573,12.01103 9.09926,10.555147 5.82353,-1.455883 9.46324,-2.911763 6.91544,-7.643382 -2.54779,-4.731618 -10.91911,-4.003676 -8.00735,-8.371324 2.91177,-4.367647 4.00368,-9.0992638 13.10294,-5.823528 9.09927,3.275734 19.65441,6.187499 13.83088,13.10294 -5.82353,6.915442 -14.55882,10.555148 -9.46323,16.378675 5.09559,5.823529 11.64706,11.647059 17.10662,5.823529 5.45955,-5.823529 4.73161,-11.283087 5.09558,-17.470585 0.36397,-6.187501 2.91177,-11.64706 9.46324,-6.551472 6.55147,5.095589 24.02205,5.823529 16.37867,15.286765 -7.64338,9.463235 -10.91912,13.46691 -17.83455,17.834559 -6.91545,4.367647 5.45955,14.922794 10.55514,13.102939 5.09559,-1.819851 3.27574,-4.731617 5.09559,-10.555147 1.81985,-5.823529 5.09559,-13.830882 10.19118,-4.731615 5.09558,9.099264 14.55882,13.830882 4.73161,21.838235 -9.8272,8.007352 -11.64706,14.558822 -21.11029,8.371324 -9.46323,-6.187501 -11.64706,-12.011031 -17.47059,-5.09559 -5.82353,6.915441 -10.91911,13.102942 -2.18382,14.922794 8.7353,1.819854 9.82721,1.455883 13.83088,-0.72794 4.00368,-2.183824 12.375,-4.367649 9.09926,5.459557 -3.27573,9.827205 -2.18382,23.294115 -14.92279,15.286765 -12.73897,-8.00735 -2.18382,-12.37501 -15.65073,-14.922795 -13.46691,-2.547793 -17.83456,0.72794 -15.28677,6.551475 2.5478,5.82353 -3.6397,9.46323 4.00368,7.27941 7.64338,-2.18383 16.01471,-2.18383 12.73897,3.27573 -3.27574,5.45956 -10.19118,16.37868 -19.65441,12.01103 -9.46324,-4.36765 -22.93015,-9.8272 -15.28677,-18.92647 7.64339,-9.099265 7.15744,-13.478713 1.45589,-15.650734 -7.64338,-2.911766 -16.74265,-5.823529 -18.5625,0.363972 -1.81986,6.187497 2.18382,7.279407 2.18382,12.011032 0,4.73161 -14.55882,10.19117 -18.19853,4.36764 -3.6397,-5.82354 -10.19117,-11.647055 -2.54779,-19.290436 7.64338,-7.643383 9.8272,-4.003677 17.47058,-6.1875 7.64339,-2.183823 15.65074,-9.099264 4.00368,-7.279413 -11.64706,1.819855 -26.56985,4.367647 -21.47426,-5.459558 5.09559,-9.827207 6.91544,-20.382354 12.01103,-13.102941 5.09558,7.279412 9.46323,3.275736 13.10294,0.727941 6.35053,-4.445866 15.70523,1.106966 17.10662,-6.551471 z"
       id="path1"
       sodipodi:nodetypes="ssssssssssssssssssssssssssssssssssssssssssss" />
    <text
       xml:space="preserve"
       style="font-size:18.6821px;font-family:'Libertinus Serif';-inkscape-font-specification:'Libertinus Serif';writing-mode:lr-tb;direction:ltr;fill:#8e9aeb;fill-opacity:1;stroke:#0b0b10;stroke-width:1;stroke-linecap:round;stroke-linejoin:round;stroke-dasharray:6.00001, 6.00001;stroke-dashoffset:0;stroke-opacity:0.624447"
       x="45.860294"
       y="62.966911"
       id="text1"><tspan
         sodipodi:role="line"
         id="tspan1"
         style="stroke-width:1"
         x="45.860294"
         y="62.966911"></tspan></text>
    <path
       style="fill:#8e9aeb;fill-opacity:1;stroke:#0b0b10;stroke-width:1;stroke-linecap:round;stroke-linejoin:round;stroke-dasharray:6, 6;stroke-dashoffset:0;stroke-opacity:0.7431426"
       d="m 51.485052,49.499998 c 0.36397,-7.279412 -3.63971,-15.650733 -10.19118,-13.466909 -6.55147,2.183823 -3.27573,7.643381 -8.00735,7.279408 -5.73793,-0.441382 -12.73897,1.819855 -13.46691,-5.823529 -0.72794,-7.643381 -2.18383,-11.283087 4.73162,-15.650734 6.91544,-4.367647 14.55882,-8.735294 16.0147,-2.547794 1.45588,6.187501 3.27574,12.01103 9.09926,10.555147 5.82353,-1.455883 9.46324,-2.911763 6.91545,-7.643382 -2.5478,-4.731618 -10.91912,-4.003676 -8.00736,-8.371324 2.91177,-4.3676465 4.00368,-9.0992633 13.10294,-5.8235285 9.09927,3.2757345 19.65442,6.1874995 13.83089,13.1029405 -5.82353,6.915442 -14.55883,10.555148 -9.46324,16.378675 5.09559,5.823529 11.64706,11.647059 17.10662,5.823529 5.45956,-5.823529 4.73162,-11.283087 5.09559,-17.470585 0.36397,-6.187501 2.91176,-11.64706 9.46323,-6.551472 6.551478,5.095589 24.022058,5.823529 16.378678,15.286765 -7.64338,9.463235 -10.91912,13.46691 -17.834558,17.834559 -6.91544,4.367647 5.459558,14.922794 10.555148,13.102939 5.09559,-1.819851 3.27574,-4.731617 5.09559,-10.555147 1.81985,-5.823529 5.09559,-13.830882 10.19118,-4.731615 5.09558,9.099264 14.55882,13.830882 4.73161,21.838235 -9.8272,8.007352 -11.64706,14.558822 -21.11029,8.371324 -9.463238,-6.187501 -11.647058,-12.011031 -17.470588,-5.09559 -5.82353,6.915441 -10.91912,13.102942 -2.18383,14.922794 8.7353,1.819854 9.82721,1.455883 13.83089,-0.72794 4.003678,-2.183824 12.374998,-4.367649 9.099258,5.459558 -3.27573,9.827198 -2.18382,23.294108 -14.922788,15.286758 -12.73897,-8.00735 -2.18383,-12.374994 -15.65074,-14.922787 -13.46691,-2.547795 -17.83456,0.72794 -15.28676,6.551467 2.54779,5.82353 -3.63971,9.46323 4.00367,7.27941 7.64339,-2.18383 16.01471,-2.18383 12.73897,3.27573 -3.27573,5.45956 -10.19117,16.37868 -19.65441,12.01103 -9.46323,-4.36765 -22.93014,-9.8272 -15.28676,-18.92647 7.64338,-9.099255 7.15743,-13.478707 1.45588,-15.650728 -7.64338,-2.911766 -16.74265,-5.823529 -18.5625,0.363972 -1.81985,6.187501 2.18382,7.279412 2.18382,12.011026 0,4.73161 -14.55882,10.19117 -18.19852,4.36764 C 8.1725524,100.81985 1.6210824,94.996322 9.2644624,87.35294 c 7.6433796,-7.643383 9.8272096,-4.003677 17.4705896,-6.1875 7.64338,-2.183823 15.65074,-9.099264 4.00368,-7.279413 C 19.091672,75.705882 4.1688724,78.253674 9.2644624,68.426469 14.360052,58.599262 16.179902,48.044115 21.275492,55.323528 c 5.09559,7.279412 9.46324,3.275736 13.10294,0.727941 6.35053,-4.445866 15.70523,1.106966 17.10662,-6.551471 z"
       id="path2"
       sodipodi:nodetypes="ssssssssssssssssssssssssssssssssssssssssssss" />
    <text
       xml:space="preserve"
       transform="matrix(0.26458333,0,0,0.26458333,12.011029,-80.4375)"
       id="text3"
       style="font-size:70.6095px;font-family:'Libertinus Serif';-inkscape-font-specification:'Libertinus Serif';writing-mode:lr-tb;direction:ltr;white-space:pre;shape-inside:url(#rect3);display:inline;fill:none;fill-opacity:1;stroke:#0b0b10;stroke-width:3.77953;stroke-linecap:round;stroke-linejoin:round;stroke-dasharray:none;stroke-dashoffset:0;stroke-opacity:1"><tspan
         x="143.06641"
         y="285.67546"
         id="tspan4"><tspan
           style="fill:#000000;stroke:none"
           id="tspan2">\(A\)</tspan></tspan></text>
    <text
       xml:space="preserve"
       transform="matrix(0.26458333,0,0,0.26458333,204.6361,-81.165442)"
       id="text6"
       style="font-size:70.6095px;font-family:'Libertinus Serif';-inkscape-font-specification:'Libertinus Serif';writing-mode:lr-tb;direction:ltr;white-space:pre;shape-inside:url(#rect7);display:inline;fill:none;fill-opacity:1;stroke:#0b0b10;stroke-width:3.77953;stroke-linecap:round;stroke-linejoin:round;stroke-dasharray:none;stroke-dashoffset:0;stroke-opacity:1"><tspan
         x="143.06641"
         y="285.67546"
         id="tspan7"><tspan
           style="fill:#000000;stroke:none"
           id="tspan5">\(\cl A\)</tspan></tspan></text>
  </g>
</svg>
