<?xml version="1.0" encoding="UTF-8" standalone="no"?>
<!-- Created with Inkscape (http://www.inkscape.org/) -->

<svg
   width="253.89983mm"
   height="247.07605mm"
   viewBox="0 0 253.89983 247.07605"
   version="1.1"
   id="svg1"
   inkscape:version="1.4.3 (0d15f75042, 2025-12-25)"
   sodipodi:docname="cont-conv.svg"
   xmlns:inkscape="http://www.inkscape.org/namespaces/inkscape"
   xmlns:sodipodi="http://sodipodi.sourceforge.net/DTD/sodipodi-0.dtd"
   xmlns="http://www.w3.org/2000/svg"
   xmlns:svg="http://www.w3.org/2000/svg">
  <sodipodi:namedview
     id="namedview1"
     pagecolor="#ffffff"
     bordercolor="#000000"
     borderopacity="0.25"
     inkscape:showpageshadow="2"
     inkscape:pageopacity="0.0"
     inkscape:pagecheckerboard="0"
     inkscape:deskcolor="#d1d1d1"
     inkscape:document-units="mm"
     inkscape:zoom="0.34860801"
     inkscape:cx="715.70358"
     inkscape:cy="279.68376"
     inkscape:window-width="1366"
     inkscape:window-height="710"
     inkscape:window-x="0"
     inkscape:window-y="0"
     inkscape:window-maximized="1"
     inkscape:current-layer="layer1" />
  <defs
     id="defs1">
    <rect
       x="-2.7512739"
       y="884.53455"
       width="231.10699"
       height="88.040756"
       id="rect4" />
    <rect
       x="213.99889"
       y="-307.38019"
       width="451.34308"
       height="217.88977"
       id="rect3" />
    <rect
       x="410.48874"
       y="-301.54388"
       width="324.88919"
       height="130.34477"
       id="rect2" />
    <rect
       x="-673.12372"
       y="-369.63443"
       width="840.43195"
       height="276.25311"
       id="rect1" />
    <rect
       x="-673.12372"
       y="-369.63443"
       width="840.43195"
       height="276.25311"
       id="rect1-7" />
    <rect
       x="410.48874"
       y="-301.54388"
       width="324.88919"
       height="130.34477"
       id="rect2-5" />
    <rect
       x="213.99889"
       y="-307.38019"
       width="451.34308"
       height="217.88977"
       id="rect3-3" />
    <rect
       x="-2.7512739"
       y="884.53455"
       width="334.35571"
       height="89.455124"
       id="rect8" />
    <rect
       x="-673.12372"
       y="-369.63443"
       width="840.43195"
       height="276.25311"
       id="rect15" />
    <rect
       x="410.48874"
       y="-301.54388"
       width="324.88919"
       height="130.34477"
       id="rect16" />
    <rect
       x="213.99889"
       y="-307.38019"
       width="451.34308"
       height="217.88977"
       id="rect17" />
    <rect
       x="-2.7512739"
       y="884.53455"
       width="231.10699"
       height="88.040756"
       id="rect18" />
    <rect
       x="-2.7512739"
       y="884.53455"
       width="334.35571"
       height="89.455124"
       id="rect19" />
  </defs>
  <g
     inkscape:label="Layer 1"
     inkscape:groupmode="layer"
     id="layer1"
     transform="translate(-7.3290927,1.4562758)">
    <ellipse
       style="fill:#8390ff;fill-opacity:1;stroke:#0b0b10;stroke-width:1;stroke-linecap:round;stroke-linejoin:round;stroke-dasharray:none"
       id="path1-2"
       cx="39.129715"
       cy="202.69499"
       rx="16.531736"
       ry="16.742649" />
    <ellipse
       style="fill:#88ff83;fill-opacity:0.474277;stroke:#0b0b10;stroke-width:1;stroke-linecap:round;stroke-linejoin:round;stroke-dasharray:none"
       id="path4-9"
       cx="188.54959"
       cy="197.38339"
       rx="43.529957"
       ry="43.34837" />
    <path
       style="fill:#8390ff;fill-opacity:1;stroke:#0b0b10;stroke-width:1;stroke-linecap:round;stroke-linejoin:round;stroke-dasharray:none"
       d="m 188.77814,214.19093 c 2.63619,-2.04665 -3.27574,-8.73529 2.54779,-8.73529 5.82353,0 4.73161,2.91176 9.09926,6.91544 4.36765,4.00368 17.83456,1.09191 18.92647,-5.82353 1.09191,-6.91544 -5.45956,-10.91912 -9.46323,-11.28309 -4.00368,-0.36397 -8.7353,-8.73529 -3.27574,-10.91912 5.45956,-2.18382 6.1875,4.36765 10.19118,4.36765 4.00367,0 7.27941,-4.36765 4.00367,-9.09926 -3.27573,-4.73162 -12.375,-10.19118 -17.10661,-8.37133 -4.73162,1.81986 -10.91912,5.82353 -9.09927,8.37133 1.81985,2.54779 4.36765,9.8272 -0.36397,7.27941 -4.73162,-2.5478 -3.63971,-3.63971 -6.91544,-8.00735 -3.27573,-4.36765 -8.73529,-5.09559 -10.91912,-1.45589 -2.18382,3.63971 -5.82353,12.01103 -1.09191,12.01103 4.73162,0 4.36765,-7.27941 7.64338,-4.36764 3.27574,2.91176 2.18383,9.46323 -2.18382,8.73529 -4.36765,-0.72794 -10.19118,-1.81985 -12.375,-4.00368 -2.18382,-2.18382 -9.8272,0 -8.00735,5.45956 1.81985,5.45956 4.73161,8.00736 8.00735,4.73162 3.27574,-3.27573 10.19118,-5.82353 6.55147,-0.36397 -3.63971,5.45956 -11.64706,14.92279 -6.1875,15.28676 5.45956,0.36398 3.63971,-3.27573 6.1875,-6.55147 2.5478,-3.27573 0.36397,3.27574 2.91176,6.1875 2.5478,2.91177 8.28293,1.68268 10.91913,-0.36397 z"
       id="path3-1"
       sodipodi:nodetypes="zssssssssssssssssssssssz" />
    <circle
       style="fill:#000000;fill-opacity:1;stroke:none;stroke-width:2.587;stroke-linecap:round;stroke-linejoin:round"
       id="path5-2"
       cx="39.337936"
       cy="201.81593"
       r="1.8198529" />
    <circle
       style="fill:#000000;fill-opacity:1;stroke:none;stroke-width:2.587;stroke-linecap:round;stroke-linejoin:round"
       id="circle5-7"
       cx="192.23582"
       cy="196.17439"
       r="1.8198529" />
    <rect
       style="fill:none;fill-opacity:1;stroke:#353535;stroke-width:0.687;stroke-linecap:round;stroke-linejoin:round;stroke-dasharray:none;stroke-dashoffset:0;stroke-opacity:1"
       id="rect5-0"
       width="58.506516"
       height="72.643356"
       x="7.6725926"
       y="164.14497" />
    <rect
       style="fill:none;fill-opacity:1;stroke:#353535;stroke-width:0.707186;stroke-linecap:round;stroke-linejoin:round;stroke-dasharray:none;stroke-dashoffset:0;stroke-opacity:1"
       id="rect6-9"
       width="99.216049"
       height="118.67896"
       x="208.35135"
       y="141.23399"
       transform="matrix(1,0,-0.33073414,0.94372397,0,0)" />
    <path
       style="fill:none;fill-opacity:1;stroke:#000000;stroke-width:1;stroke-linecap:round;stroke-linejoin:round;stroke-dasharray:none;stroke-dashoffset:0;stroke-opacity:1"
       d="m 78.031058,190.85075 c 7.72098,-9.26518 14.4125,-11.7193 22.133472,-12.23403 7.72098,-0.51474 19.98623,2.0277 19.98623,2.0277 l 2.0848,-7.55951 10.7157,14.13149 -16.94957,6.29097 2.17846,-6.25974 c 0,0 -7.07331,-1.82248 -14.29296,-2.09016 -5.750342,-0.21321 -9.535462,1.2739 -13.138582,3.84756 -3.60313,2.57366 -6.54076,6.99304 -6.54076,6.99304 z"
       id="path6-3"
       sodipodi:nodetypes="cscccccsscc" />
    <text
       xml:space="preserve"
       transform="matrix(0.13669144,0,0,0.13669144,121.9731,223.64634)"
       id="text1-6"
       style="font-size:70.6095px;font-family:'Libertinus Serif';-inkscape-font-specification:'Libertinus Serif';writing-mode:lr-tb;direction:ltr;white-space:pre;shape-inside:url(#rect1-7);display:inline;fill:#000000;fill-opacity:1;stroke-width:7.31575;stroke-linecap:round;stroke-linejoin:round"><tspan
         x="-673.12305"
         y="-305.43587"
         id="tspan4">\(U_V\)</tspan></text>
    <text
       xml:space="preserve"
       transform="matrix(0.26458333,0,0,0.26458333,81.438138,213.12818)"
       id="text2-0"
       style="font-size:70.6095px;font-family:'Libertinus Serif';-inkscape-font-specification:'Libertinus Serif';writing-mode:lr-tb;direction:ltr;white-space:pre;shape-inside:url(#rect2-5);display:inline;fill:#000000;fill-opacity:1;stroke-width:3.77953;stroke-linecap:round;stroke-linejoin:round"><tspan
         x="410.48828"
         y="-237.34407"
         id="tspan5">\(V\)</tspan></text>
    <text
       xml:space="preserve"
       transform="matrix(0.26458333,0,0,0.26458333,49.112748,233.11571)"
       id="text3-6"
       style="font-size:70.6095px;font-family:'Libertinus Serif';-inkscape-font-specification:'Libertinus Serif';writing-mode:lr-tb;direction:ltr;white-space:pre;shape-inside:url(#rect3-3);display:inline;fill:#000000;fill-opacity:1;stroke-width:3.77953;stroke-linecap:round;stroke-linejoin:round"><tspan
         x="213.99805"
         y="-243.18196"
         id="tspan6">\(f\)</tspan></text>
    <circle
       style="fill:#000000;fill-opacity:1;stroke:none;stroke-width:2.587;stroke-linecap:round;stroke-linejoin:round"
       id="circle1"
       cx="32.458763"
       cy="210.81165"
       r="1.8198529" />
    <circle
       style="fill:#000000;fill-opacity:1;stroke:none;stroke-width:2.587;stroke-linecap:round;stroke-linejoin:round"
       id="circle2"
       cx="182.74144"
       cy="209.75333"
       r="1.8198529" />
    <text
       xml:space="preserve"
       transform="matrix(0.26458333,0,0,0.26458333,23.748407,-21.933914)"
       id="text4"
       style="font-size:70.6095px;font-family:'Libertinus Serif';-inkscape-font-specification:'Libertinus Serif';writing-mode:lr-tb;direction:ltr;white-space:pre;shape-inside:url(#rect4);display:inline;fill:#3c2f1a;fill-opacity:1;stroke:#000000;stroke-width:3.02362;stroke-linecap:round;stroke-linejoin:round;stroke-opacity:0.440843"><tspan
         x="-2.7519531"
         y="948.73405"
         id="tspan10"><tspan
           style="stroke:none"
           id="tspan9">\(x_n\)</tspan></tspan></text>
    <text
       xml:space="preserve"
       transform="matrix(0.26458333,0,0,0.26458333,169.11436,-19.662297)"
       id="text8"
       style="font-size:70.6095px;font-family:'Libertinus Serif';-inkscape-font-specification:'Libertinus Serif';writing-mode:lr-tb;direction:ltr;white-space:pre;shape-inside:url(#rect8);display:inline;fill:#3c2f1a;fill-opacity:1;stroke:#000000;stroke-width:3.02362;stroke-linecap:round;stroke-linejoin:round;stroke-opacity:0.440843"><tspan
         x="-2.7519531"
         y="948.73405"
         id="tspan15"><tspan
           style="stroke:none"
           id="tspan14">\(f(x_n)\)</tspan></tspan></text>
    <ellipse
       style="fill:#8390ff;fill-opacity:1;stroke:#0b0b10;stroke-width:1;stroke-linecap:round;stroke-linejoin:round;stroke-dasharray:none"
       id="ellipse8"
       cx="39.129715"
       cy="68.287682"
       rx="16.531736"
       ry="16.742649" />
    <ellipse
       style="fill:#88ff83;fill-opacity:0.474277;stroke:#0b0b10;stroke-width:1;stroke-linecap:round;stroke-linejoin:round;stroke-dasharray:none"
       id="ellipse9"
       cx="188.54959"
       cy="62.975975"
       rx="43.529957"
       ry="43.34837" />
    <path
       style="fill:#8390ff;fill-opacity:1;stroke:#0b0b10;stroke-width:1;stroke-linecap:round;stroke-linejoin:round;stroke-dasharray:none"
       d="m 188.77814,79.781867 c 2.63619,-2.046638 -3.27574,-8.735242 2.54779,-8.735242 5.82353,0 4.73161,2.911745 9.09926,6.915401 4.36765,4.003659 17.83456,1.091904 18.92647,-5.823497 1.09191,-6.915401 -5.45956,-10.919057 -9.46323,-11.283027 -4.00368,-0.363967 -8.7353,-8.735239 -3.27574,-10.919057 5.45956,-2.183808 6.1875,4.367626 10.19118,4.367626 4.00367,0 7.27941,-4.367626 4.00367,-9.099209 -3.27573,-4.731593 -12.375,-10.191123 -17.10661,-8.371282 -4.73162,1.819848 -10.91912,5.823497 -9.09927,8.371282 1.81985,2.547775 4.36765,9.827143 -0.36397,7.279368 -4.73162,-2.547785 -3.63971,-3.639689 -6.91544,-8.007305 -3.27573,-4.367623 -8.73529,-5.09556 -10.91912,-1.455881 -2.18382,3.639689 -5.82353,12.010961 -1.09191,12.010961 4.73162,0 4.36765,-7.279368 7.64338,-4.367613 3.27574,2.911742 2.18383,9.463176 -2.18382,8.735239 -4.36765,-0.727934 -10.19118,-1.819838 -12.375,-4.003656 -2.18382,-2.183808 -9.8272,0 -8.00735,5.459527 1.81985,5.45953 4.73161,8.007315 8.00735,4.731596 3.27574,-3.275712 10.19118,-5.823497 6.55147,-0.36397 -3.63971,5.45953 -11.64706,14.922706 -6.1875,15.286673 5.45956,0.36398 3.63971,-3.275709 6.1875,-6.551431 2.5478,-3.275712 0.36397,3.275722 2.91176,6.187464 2.5478,2.911755 8.28293,1.682671 10.91913,-0.363967 z"
       id="path9"
       sodipodi:nodetypes="zssssssssssssssssssssssz" />
    <circle
       style="fill:#000000;fill-opacity:1;stroke:none;stroke-width:2.587;stroke-linecap:round;stroke-linejoin:round"
       id="circle9"
       cx="39.337936"
       cy="67.408592"
       r="1.8198529" />
    <circle
       style="fill:#000000;fill-opacity:1;stroke:none;stroke-width:2.587;stroke-linecap:round;stroke-linejoin:round"
       id="circle10"
       cx="192.23582"
       cy="61.76693"
       r="1.8198529" />
    <rect
       style="fill:none;fill-opacity:1;stroke:#353535;stroke-width:0.687;stroke-linecap:round;stroke-linejoin:round;stroke-dasharray:none;stroke-dashoffset:0;stroke-opacity:1"
       id="rect10"
       width="58.506516"
       height="72.643356"
       x="7.6725926"
       y="29.737076" />
    <rect
       style="fill:none;fill-opacity:1;stroke:#353535;stroke-width:0.707186;stroke-linecap:round;stroke-linejoin:round;stroke-dasharray:none;stroke-dashoffset:0;stroke-opacity:1"
       id="rect11"
       width="99.216049"
       height="118.67896"
       x="161.2457"
       y="-1.1895232"
       transform="matrix(1,0,-0.33073414,0.94372397,0,0)" />
    <path
       style="fill:none;fill-opacity:1;stroke:#000000;stroke-width:1;stroke-linecap:round;stroke-linejoin:round;stroke-dasharray:none;stroke-dashoffset:0;stroke-opacity:1"
       d="m 78.031058,56.441819 c 7.72098,-9.265129 14.4125,-11.719234 22.133472,-12.233961 7.72098,-0.514737 19.98623,2.027688 19.98623,2.027688 l 2.0848,-7.559468 10.7157,14.131412 -16.94957,6.290934 2.17846,-6.259704 c 0,0 -7.07331,-1.822471 -14.29296,-2.090148 -5.750342,-0.21321 -9.535462,1.273891 -13.138582,3.847536 -3.60313,2.573645 -6.54076,6.993001 -6.54076,6.993001 z"
       id="path11"
       sodipodi:nodetypes="cscccccsscc" />
    <text
       xml:space="preserve"
       transform="matrix(0.13669144,0,0,0.13669144,121.9731,89.237223)"
       id="text11"
       style="font-size:70.6095px;font-family:'Libertinus Serif';-inkscape-font-specification:'Libertinus Serif';writing-mode:lr-tb;direction:ltr;white-space:pre;shape-inside:url(#rect15);display:inline;fill:#000000;fill-opacity:1;stroke-width:7.31575;stroke-linecap:round;stroke-linejoin:round"><tspan
         x="-673.12305"
         y="-305.43587"
         id="tspan16">\(U_V\)</tspan></text>
    <text
       xml:space="preserve"
       transform="matrix(0.26458333,0,0,0.26458333,81.438138,78.719123)"
       id="text12"
       style="font-size:70.6095px;font-family:'Libertinus Serif';-inkscape-font-specification:'Libertinus Serif';writing-mode:lr-tb;direction:ltr;white-space:pre;shape-inside:url(#rect16);display:inline;fill:#000000;fill-opacity:1;stroke-width:3.77953;stroke-linecap:round;stroke-linejoin:round"><tspan
         x="410.48828"
         y="-237.34407"
         id="tspan17">\(V\)</tspan></text>
    <text
       xml:space="preserve"
       transform="matrix(0.26458333,0,0,0.26458333,49.112748,98.706539)"
       id="text13"
       style="font-size:70.6095px;font-family:'Libertinus Serif';-inkscape-font-specification:'Libertinus Serif';writing-mode:lr-tb;direction:ltr;white-space:pre;shape-inside:url(#rect17);display:inline;fill:#000000;fill-opacity:1;stroke-width:3.77953;stroke-linecap:round;stroke-linejoin:round"><tspan
         x="213.99805"
         y="-243.18196"
         id="tspan18">\(f\)</tspan></text>
  </g>
</svg>
