<?xml version="1.0" encoding="UTF-8" standalone="no"?>
<!-- Created with Inkscape (http://www.inkscape.org/) -->

<svg
   width="584.40796mm"
   height="146.91435mm"
   viewBox="0 0 584.40796 146.91435"
   version="1.1"
   id="svg1"
   sodipodi:docname="interior-boundary.svg"
   inkscape:version="1.4.3 (0d15f75042, 2025-12-25)"
   xmlns:inkscape="http://www.inkscape.org/namespaces/inkscape"
   xmlns:sodipodi="http://sodipodi.sourceforge.net/DTD/sodipodi-0.dtd"
   xmlns="http://www.w3.org/2000/svg"
   xmlns:svg="http://www.w3.org/2000/svg">
  <sodipodi:namedview
     id="namedview1"
     pagecolor="#ffffff"
     bordercolor="#000000"
     borderopacity="0.25"
     inkscape:showpageshadow="2"
     inkscape:pageopacity="0.0"
     inkscape:pagecheckerboard="0"
     inkscape:deskcolor="#d1d1d1"
     inkscape:document-units="mm"
     inkscape:zoom="0.36346801"
     inkscape:cx="1291.723"
     inkscape:cy="250.36591"
     inkscape:window-width="1920"
     inkscape:window-height="1025"
     inkscape:window-x="0"
     inkscape:window-y="0"
     inkscape:window-maximized="1"
     inkscape:current-layer="layer1" />
  <defs
     id="defs1">
    <rect
       x="1620.5002"
       y="27.512737"
       width="547.50348"
       height="209.0968"
       id="rect6" />
    <rect
       x="1273.8397"
       y="404.43723"
       width="385.17834"
       height="85.28949"
       id="rect5" />
    <rect
       x="143.06622"
       y="221.47754"
       width="242.11209"
       height="115.5535"
       id="rect3" />
  </defs>
  <g
     inkscape:label="Layer 1"
     inkscape:groupmode="layer"
     id="layer1"
     transform="translate(-5.0703815,19.050458)">
    <path
       style="fill:#8e9aeb;fill-opacity:1;stroke:#0b0b10;stroke-width:1;stroke-linecap:round;stroke-linejoin:round;stroke-dasharray:none;stroke-dashoffset:0;stroke-opacity:1"
       d="M 51.319853,50.955881 C 51.683824,43.676469 47.680147,35.305148 41.128677,37.488972 34.577205,39.672795 37.852941,45.132353 33.121324,44.76838 27.383393,44.326998 20.382353,46.588235 19.654412,38.944851 18.92647,31.30147 17.470588,27.661764 24.386029,23.294117 31.30147,18.92647 38.944851,14.558823 40.400734,20.746323 c 1.455883,6.187501 3.275735,12.01103 9.099264,10.555147 5.82353,-1.455883 9.463236,-2.911763 6.915441,-7.643382 C 53.867647,18.92647 45.496323,19.654412 48.408087,15.286764 51.319853,10.919117 52.411764,6.1875 61.511028,9.4632353 70.610293,12.73897 81.16544,15.650735 75.34191,22.566176 c -5.823529,6.915442 -14.558822,10.555148 -9.463235,16.378675 5.095589,5.823529 11.647059,11.647059 17.106619,5.823529 5.459558,-5.823529 4.731618,-11.283087 5.095587,-17.470585 0.363971,-6.187501 2.911766,-11.64706 9.463235,-6.551472 6.551474,5.095589 24.022054,5.823529 16.378674,15.286765 -7.64338,9.463235 -10.91912,13.46691 -17.834557,17.834559 -6.915441,4.367647 5.459557,14.922794 10.555147,13.102939 5.09559,-1.819851 3.27574,-4.731617 5.09559,-10.555147 1.81985,-5.823529 5.09559,-13.830882 10.19118,-4.731615 5.09558,9.099264 14.55882,13.830882 4.73161,21.838235 -9.8272,8.007352 -11.64706,14.558822 -21.11029,8.371324 -9.463237,-6.187501 -11.64706,-12.011031 -17.470589,-5.09559 -5.82353,6.915441 -10.919116,13.102942 -2.183824,14.922794 8.735296,1.819854 9.827207,1.455883 13.830882,-0.72794 4.003681,-2.183824 12.375001,-4.367649 9.099261,5.459558 -3.27573,9.827205 -2.18382,23.294115 -14.92279,15.286765 -12.73897,-8.00735 -2.183823,-12.374999 -15.650734,-14.922794 -13.466913,-2.547795 -17.834559,0.72794 -15.286764,6.551474 2.547792,5.82353 -3.639707,9.46323 4.003674,7.27941 7.643384,-2.18383 16.014708,-2.18383 12.738971,3.27573 -3.275735,5.45956 -10.191176,16.37868 -19.654412,12.01103 -9.463235,-4.36765 -22.930146,-9.8272 -15.286765,-18.92647 7.643384,-9.099262 7.157436,-13.478714 1.455885,-15.650735 -7.643382,-2.911766 -16.742647,-5.823529 -18.562501,0.363972 -1.819852,6.187501 2.183823,7.279412 2.183823,12.011033 0,4.73161 -14.558823,10.19117 -18.198528,4.36764 C 8.0073528,102.27573 1.4558823,96.452205 9.0992647,88.808823 16.742647,81.16544 18.92647,84.805146 26.569852,82.621323 34.213236,80.4375 42.220589,73.522059 30.57353,75.34191 18.92647,77.161765 4.0036765,79.709557 9.0992647,69.882352 14.194853,60.055145 16.014706,49.499998 21.110294,56.779411 c 5.095588,7.279412 9.463236,3.275736 13.102942,0.727941 6.350529,-4.445866 15.705228,1.106966 17.106617,-6.551471 z"
       id="path1"
       sodipodi:nodetypes="ssssssssssssssssssssssssssssssssssssssssssss" />
    <text
       xml:space="preserve"
       style="font-size:18.6821px;font-family:'Libertinus Serif';-inkscape-font-specification:'Libertinus Serif';writing-mode:lr-tb;direction:ltr;fill:#8e9aeb;fill-opacity:1;stroke:#0b0b10;stroke-width:1;stroke-linecap:round;stroke-linejoin:round;stroke-dasharray:6.00001, 6.00001;stroke-dashoffset:0;stroke-opacity:0.624447"
       x="45.860294"
       y="62.966911"
       id="text1"><tspan
         sodipodi:role="line"
         id="tspan1"
         style="stroke-width:1"
         x="45.860294"
         y="62.966911" /></text>
    <path
       style="fill:#8e9aeb;fill-opacity:1;stroke:#0b0b10;stroke-width:1;stroke-linecap:round;stroke-linejoin:round;stroke-dasharray:6, 6;stroke-dashoffset:0;stroke-opacity:0.64227229"
       d="m 186.15417,48.044116 c 0.36397,-7.279412 -3.63971,-15.650733 -10.19118,-13.466909 -6.55147,2.183823 -3.27573,7.643381 -8.00735,7.279408 -5.73793,-0.441382 -12.73897,1.819855 -13.46691,-5.823529 -0.72794,-7.643381 -2.18383,-11.283087 4.73162,-15.650734 6.91544,-4.367647 14.55882,-8.735294 16.0147,-2.547794 1.45588,6.187501 3.27574,12.01103 9.09926,10.555147 5.82353,-1.455883 9.46324,-2.911763 6.91545,-7.643382 -2.5478,-4.731618 -10.91912,-4.003676 -8.00736,-8.371324 2.91177,-4.3676469 4.00368,-9.0992637 13.10294,-5.8235289 9.09927,3.275735 19.65442,6.1874999 13.83089,13.1029409 -5.82353,6.915442 -14.55883,10.555148 -9.46324,16.378675 5.09559,5.823529 11.64706,11.647059 17.10662,5.823529 5.45956,-5.823529 4.73162,-11.283087 5.09559,-17.470585 0.36397,-6.187501 2.91176,-11.64706 9.46323,-6.551472 6.55148,5.095589 24.02206,5.823529 16.37868,15.286765 -7.64338,9.463235 -10.91912,13.46691 -17.83456,17.834559 -6.91544,4.367647 5.45956,14.922794 10.55515,13.102939 5.09559,-1.819851 3.27574,-4.731617 5.09559,-10.555147 1.81985,-5.823529 5.09559,-13.830882 10.19118,-4.731615 5.09558,9.099264 14.55882,13.830882 4.73161,21.838235 -9.8272,8.007352 -11.64706,14.558822 -21.11029,8.371324 -9.46324,-6.187501 -11.64706,-12.011031 -17.47059,-5.09559 -5.82353,6.915441 -10.91912,13.102942 -2.18383,14.922794 8.7353,1.819854 9.82721,1.455883 13.83089,-0.72794 4.00368,-2.183824 12.375,-4.367649 9.09926,5.459558 -3.27573,9.8272 -2.18382,23.29411 -14.92279,15.28676 -12.73897,-8.00735 -2.18383,-12.374996 -15.65074,-14.922789 -13.46691,-2.547795 -17.83456,0.72794 -15.28676,6.551469 2.54779,5.82353 -3.63971,9.46323 4.00367,7.27941 7.64339,-2.18383 16.01471,-2.18383 12.73897,3.27573 -3.27573,5.45956 -10.19117,16.37868 -19.65441,12.01103 -9.46323,-4.36765 -22.93014,-9.8272 -15.28676,-18.92647 7.64338,-9.099257 7.15743,-13.478709 1.45588,-15.65073 -7.64338,-2.911766 -16.74265,-5.823529 -18.5625,0.363972 -1.81985,6.187501 2.18382,7.279412 2.18382,12.011028 0,4.73161 -14.55882,10.19117 -18.19852,4.36764 -3.63971,-5.823526 -10.19118,-11.64705 -2.5478,-19.290432 7.64338,-7.643383 9.82721,-4.003677 17.47059,-6.1875 7.64338,-2.183823 15.65074,-9.099264 4.00368,-7.279413 -11.64706,1.819855 -26.56986,4.367647 -21.47427,-5.459558 5.09559,-9.827207 6.91544,-20.382354 12.01103,-13.102941 5.09559,7.279412 9.46324,3.275736 13.10294,0.727941 6.35053,-4.445866 15.70523,1.106966 17.10662,-6.551471 z"
       id="path2"
       sodipodi:nodetypes="ssssssssssssssssssssssssssssssssssssssssssss" />
    <path
       style="fill:none;fill-opacity:1;stroke:#0b0b10;stroke-width:2.2;stroke-linecap:round;stroke-linejoin:round;stroke-dasharray:none;stroke-dashoffset:0;stroke-opacity:1"
       d="m 497.70768,47.117401 c 0.36397,-7.279412 -3.63971,-15.650733 -10.19118,-13.466909 -6.55147,2.183823 -3.27574,7.643381 -8.00735,7.279408 -5.73793,-0.441382 -12.73897,1.819855 -13.46692,-5.823529 -0.72794,-7.643381 -2.18382,-11.283087 4.73162,-15.650734 6.91544,-4.367647 14.55882,-8.735294 16.01471,-2.547794 1.45588,6.187501 3.27573,12.01103 9.09926,10.555147 5.82353,-1.455883 9.46324,-2.911763 6.91544,-7.643382 -2.54779,-4.731618 -10.91911,-4.003676 -8.00735,-8.371324 2.91177,-4.3676473 4.00368,-9.0992644 13.10294,-5.823529 9.09927,3.2757347 19.65441,6.187499 13.83088,13.102941 -5.82353,6.915442 -14.55882,10.555148 -9.46323,16.378675 5.09559,5.823529 11.64706,11.647059 17.10662,5.823529 5.45955,-5.823529 4.73161,-11.283087 5.09558,-17.470585 0.36397,-6.187501 2.91177,-11.647061 9.46324,-6.551472 6.55147,5.095589 24.02205,5.823529 16.37867,15.286765 -7.64338,9.463235 -10.91912,13.46691 -17.83455,17.834559 -6.91545,4.367647 5.45955,14.922794 10.55514,13.102939 5.09559,-1.819851 3.27574,-4.731617 5.09559,-10.555147 1.81985,-5.823529 5.09559,-13.830882 10.19118,-4.731615 5.09558,9.099264 14.55882,13.830882 4.73161,21.838235 -9.8272,8.007352 -11.64706,14.558822 -21.11029,8.371324 -9.46323,-6.187501 -11.64706,-12.011031 -17.47059,-5.09559 -5.82353,6.915441 -10.91911,13.102942 -2.18382,14.922794 8.7353,1.819854 9.82721,1.455883 13.83088,-0.72794 4.00368,-2.183824 12.375,-4.367649 9.09926,5.459558 -3.27573,9.827205 -2.18382,23.294115 -14.92279,15.286765 -12.73897,-8.00735 -2.18382,-12.374999 -15.65073,-14.922794 -13.46691,-2.547795 -17.83456,0.72794 -15.28677,6.551474 2.5478,5.82353 -3.6397,9.46323 4.00368,7.27941 7.64338,-2.18383 16.01471,-2.18383 12.73897,3.27573 -3.27574,5.45956 -10.19118,16.37868 -19.65441,12.01103 -9.46324,-4.36765 -22.93015,-9.8272 -15.28677,-18.92647 7.64339,-9.099262 7.15744,-13.478714 1.45589,-15.650735 -7.64338,-2.911766 -16.74265,-5.823529 -18.5625,0.363972 -1.81986,6.187501 2.18382,7.279412 2.18382,12.011033 0,4.73161 -14.55882,10.19117 -18.19853,4.36764 -3.6397,-5.82353 -10.19118,-11.647055 -2.54779,-19.290437 7.64338,-7.643383 9.8272,-4.003677 17.47058,-6.1875 7.64339,-2.183823 15.65074,-9.099264 4.00368,-7.279413 -11.64706,1.819855 -26.56985,4.367647 -21.47426,-5.459558 5.09559,-9.827207 6.91544,-20.382354 12.01103,-13.102941 5.09558,7.279412 9.46323,3.275736 13.10294,0.727941 6.35053,-4.445866 15.70523,1.106966 17.10662,-6.551471 z"
       id="path3"
       sodipodi:nodetypes="ssssssssssssssssssssssssssssssssssssssssssss" />
    <text
       xml:space="preserve"
       transform="matrix(0.26458333,0,0,0.26458333,12.011029,-80.4375)"
       id="text3"
       style="font-size:70.6095px;font-family:'Libertinus Serif';-inkscape-font-specification:'Libertinus Serif';writing-mode:lr-tb;direction:ltr;white-space:pre;shape-inside:url(#rect3);display:inline;fill:none;fill-opacity:1;stroke:#0b0b10;stroke-width:3.77953;stroke-linecap:round;stroke-linejoin:round;stroke-dasharray:none;stroke-dashoffset:0;stroke-opacity:1"><tspan
         x="143.06641"
         y="285.67546"
         id="tspan5"><tspan
           style="fill:#000000;stroke:none"
           id="tspan3">\(A\)</tspan></tspan></text>
    <text
       xml:space="preserve"
       style="font-size:18.6821px;font-family:'Libertinus Serif';-inkscape-font-specification:'Libertinus Serif';writing-mode:lr-tb;direction:ltr;fill:#000000;fill-opacity:1;stroke:none;stroke-width:1;stroke-linecap:round;stroke-linejoin:round;stroke-dasharray:none;stroke-dashoffset:0;stroke-opacity:1"
       x="189.26469"
       y="-5.8235278"
       id="text4"><tspan
         sodipodi:role="line"
         id="tspan4"
         style="stroke-width:1"
         x="189.26469"
         y="-5.8235278">\(\interior A\)</tspan></text>
    <text
       xml:space="preserve"
       transform="matrix(0.26458333,0,0,0.26458333,158.99367,-125.89331)"
       id="text5"
       style="font-size:70.6095px;font-family:'Libertinus Serif';-inkscape-font-specification:'Libertinus Serif';writing-mode:lr-tb;direction:ltr;white-space:pre;shape-inside:url(#rect5);display:inline;fill:#000000;fill-opacity:1;stroke:#0b0b10;stroke-width:6.80315;stroke-linecap:round;stroke-linejoin:round;stroke-dasharray:none;stroke-dashoffset:0;stroke-opacity:0.333523"><tspan
         x="1273.8398"
         y="468.6364"
         id="tspan7"><tspan
           style="stroke:none"
           id="tspan6">\(\partial A\)</tspan></tspan></text>
    <path
       d="M 290.42311,3.1820921 V 127.8639 H 440.37934 V 3.1820921 Z m 66.50912,2.9776 c 1.42745,-0.0512 3.20186,0.2673 5.47667,1.08624 9.09927,3.2757299 19.65421,6.1876309 13.83068,13.1030709 -5.82353,6.91545 -14.55909,10.5548 -9.4635,16.37833 5.09559,5.82353 11.6474,11.64695 17.10696,5.82342 5.45955,-5.82353 4.73133,-11.28275 5.0953,-17.47025 0.36397,-6.1875 2.91203,-11.64713 9.4635,-6.55154 6.55147,5.09559 24.02171,5.82369 16.37833,15.28692 -7.64338,9.46324 -10.91862,13.46692 -17.83405,17.83457 -6.91545,4.36765 5.45932,14.92242 10.55491,13.10256 5.09559,-1.81985 3.27596,-4.73138 5.09581,-10.55491 1.81985,-5.82353 5.09552,-13.83076 10.19111,-4.73149 5.09558,9.09926 14.55871,13.83059 4.7315,21.83794 -9.8272,8.00735 -11.64711,14.55908 -21.11034,8.37158 -9.46323,-6.1875 -11.64724,-12.01125 -17.47077,-5.09581 -5.82353,6.91544 -10.91914,13.10327 -2.18385,14.92312 8.7353,1.81985 9.82753,1.4557 13.8312,-0.72812 4.00368,-2.18383 12.37493,-4.36759 9.09919,5.45961 -3.27573,9.827217 -2.18364,23.293767 -14.92261,15.286417 -12.73897,-8.00735 -2.18381,-12.374817 -15.65072,-14.922617 -13.46691,-2.54779 -17.83471,0.72801 -15.28692,6.551557 2.5478,5.82353 -3.64001,9.46296 4.00337,7.27914 7.64338,-2.18383 16.01501,-2.18379 12.73927,3.27577 -3.27574,5.45956 -10.19138,16.3788 -19.65461,12.01115 -9.46324,-4.36765 -22.92979,-9.82722 -15.28641,-18.92649 7.64339,-9.099277 7.15728,-13.478717 1.45573,-15.650737 -7.64338,-2.91177 -16.74284,-5.82318 -18.56269,0.36432 -1.81986,6.1875 2.18384,7.27901 2.18384,12.010647 0,4.73161 -14.55866,10.19122 -18.19837,4.36769 -3.6397,-5.82354 -10.19104,-11.646927 -2.54765,-19.290307 7.64338,-7.64338 9.82687,-4.00391 17.47025,-6.18773 7.64339,-2.18383 15.65095,-9.099 4.00389,-7.27915 -11.64706,1.81986 -26.56973,4.36759 -21.47414,-5.45961 5.09559,-9.82721 6.91505,-20.38249 12.01064,-13.10308 5.09558,7.27941 9.46337,3.27592 13.10308,0.72812 6.35053,-4.44586 15.70505,1.1069 17.10644,-6.55153 0.36397,-7.27942 -3.63963,-15.65071 -10.1911,-13.46688 -6.55147,2.18382 -3.27566,7.64311 -8.00727,7.27914 -5.73793,-0.44138 -12.73893,1.81997 -13.46688,-5.82342 -0.72794,-7.64338 -2.18394,-11.28308 4.7315,-15.65072 6.91544,-4.36765 14.55915,-8.73515 16.01504,-2.54765 1.45588,6.1875 3.27566,12.01079 9.09919,10.55491 5.82353,-1.45588 9.46314,-2.91132 6.91534,-7.64294 -2.54779,-4.73162 -10.91903,-4.00394 -8.00727,-8.37159 2.18383,-3.2757309 3.34407,-6.7561009 7.62641,-6.9096509 z"
       style="fill:#b88eb8;fill-opacity:1;stroke-linecap:round;stroke-linejoin:round;stroke-dasharray:4, 7.99999;stroke-opacity:0.333523"
       id="path6"
       sodipodi:nodetypes="cccccssssssssssssssssssssssssssssssssssccsssssssss" />
    <path
       style="fill:none;fill-opacity:1;stroke:#0b0b10;stroke-width:1;stroke-linecap:round;stroke-linejoin:round;stroke-dasharray:6, 6;stroke-dashoffset:0;stroke-opacity:0.64227229"
       d="m 351.91446,48.629413 c 0.36397,-7.27941 -3.6397,-15.65073 -10.19117,-13.46691 -6.55148,2.18382 -3.27574,7.64338 -8.00736,7.27941 -5.73793,-0.44138 -12.73897,1.81985 -13.46691,-5.82353 -0.72794,-7.64338 -2.18382,-11.28309 4.73162,-15.65073 6.91544,-4.36765 14.55882,-8.7353 16.0147,-2.5478 1.45589,6.1875 3.27574,12.01103 9.09927,10.55515 5.82353,-1.45588 9.46323,-2.91176 6.91544,-7.64338 -2.54779,-4.73162 -10.91912,-4.00368 -8.00735,-8.37133 2.91176,-4.3676409 4.00367,-9.0992609 13.10294,-5.8235209 9.09926,3.2757299 19.65441,6.1874909 13.83088,13.1029409 -5.82353,6.91544 -14.55882,10.55514 -9.46323,16.37867 5.09558,5.82353 11.64705,11.64706 17.10661,5.82353 5.45956,-5.82353 4.73162,-11.28309 5.09559,-17.47059 0.36397,-6.1875 2.91177,-11.64706 9.46324,-6.55147 6.55147,5.09559 24.02205,5.82353 16.37867,15.28677 -7.64338,9.46323 -10.91912,13.46691 -17.83456,17.83456 -6.91544,4.36764 5.45956,14.92279 10.55515,13.10294 5.09559,-1.81986 3.27574,-4.73162 5.09559,-10.55515 1.81985,-5.82353 5.09559,-13.83088 10.19118,-4.73162 5.09558,9.09927 14.55882,13.83089 4.73161,21.83824 -9.8272,8.00735 -11.64706,14.55882 -21.11029,8.37132 -9.46324,-6.1875 -11.64706,-12.01103 -17.47059,-5.09559 -5.82353,6.91544 -10.91912,13.10294 -2.18382,14.9228 8.73529,1.81985 9.8272,1.45588 13.83088,-0.72794 4.00368,-2.18383 12.375,-4.36765 9.09926,5.45955 -3.27573,9.827207 -2.18382,23.294117 -14.92279,15.286767 -12.73897,-8.00735 -2.18382,-12.374997 -15.65073,-14.922787 -13.46692,-2.5478 -17.83456,0.72794 -15.28677,6.551467 2.54779,5.82353 -3.63971,9.46323 4.00368,7.27941 7.64338,-2.18383 16.0147,-2.18383 12.73897,3.27573 -3.27574,5.45956 -10.19118,16.37868 -19.65441,12.01103 -9.46324,-4.36765 -22.93015,-9.8272 -15.28677,-18.92647 7.64338,-9.099257 7.15744,-13.478707 1.45588,-15.650737 -7.64338,-2.91176 -16.74264,-5.82352 -18.5625,0.36398 -1.81985,6.1875 2.18383,7.27941 2.18383,12.011027 0,4.73161 -14.55883,10.19117 -18.19853,4.36764 -3.63971,-5.823537 -10.19118,-11.647057 -2.5478,-19.290437 7.64339,-7.64338 9.82721,-4.00367 17.47059,-6.1875 7.64339,-2.18382 15.65074,-9.09926 4.00368,-7.27941 -11.64706,1.81985 -26.56985,4.36765 -21.47427,-5.45956 5.09559,-9.82721 6.91545,-20.38235 12.01103,-13.10294 5.09559,7.27941 9.46324,3.27574 13.10295,0.72794 6.35052,-4.44586 15.70522,1.10697 17.10661,-6.55147 z"
       id="path1-3"
       sodipodi:nodetypes="ssssssssssssssssssssssssssssssssssssssssssss" />
    <text
       xml:space="preserve"
       transform="matrix(0.26458333,0,0,0.26458333,-94.123002,-27.31509)"
       id="text6"
       style="font-size:70.6095px;font-family:'Libertinus Serif';-inkscape-font-specification:'Libertinus Serif';writing-mode:lr-tb;direction:ltr;white-space:pre;shape-inside:url(#rect6);display:inline;fill:#000000;fill-opacity:1;stroke:none;stroke-width:3.77953;stroke-linecap:round;stroke-linejoin:round;stroke-dasharray:22.6772, 22.6772;stroke-dashoffset:0;stroke-opacity:0.478854"><tspan
         x="1620.5"
         y="91.71257"
         id="tspan8">\(\text{exterior} A\)</tspan></text>
  </g>
</svg>
